<svg xmlns="http://www.w3.org/2000/svg">
	<symbol id="lock" viewBox="0 0 16 20">
		<path d="M8 0C5.243 0 3 2.243 3 5V8H2C0.897 8 0 8.897 0 10V18C0 19.103 0.897 20 2 20H14C15.103 20 16 19.103 16 18V10C16 8.897 15.103 8 14 8H13V5C13 2.243 10.757 0 8 0ZM14 10L14.002 18H2V10H14ZM5 8V5C5 3.346 6.346 2 8 2C9.654 2 11 3.346 11 5V8H5Z" fill="currentColor" />
	</symbol>

	<symbol id="close" viewBox="0 0 16 16">
		<path d="M4.646 4.646a.5.5 0 0 1 .708 0L8 7.293l2.646-2.647a.5.5 0 0 1 .708.708L8.707 8l2.647 2.646a.5.5 0 0 1-.708.708L8 8.707l-2.646 2.647a.5.5 0 0 1-.708-.708L7.293 8 4.646 5.354a.5.5 0 0 1 0-.708z"></path>
	</symbol>

	<symbol id="whatsapp" viewBox="0 0 24 24">
		<path fill-rule="evenodd" d="M18.403 5.633A8.918 8.918 0 0012.053 3c-4.948 0-8.976 4.027-8.978 8.977 0 1.582.413 3.126 1.198 4.488L3 21.116l4.759-1.249a8.981 8.981 0 004.29 1.093h.004c4.947 0 8.975-4.027 8.977-8.977a8.926 8.926 0 00-2.627-6.35zm-6.35 13.812h-.003a7.446 7.446 0 01-3.798-1.041l-.272-.162-2.824.741.753-2.753-.177-.282a7.448 7.448 0 01-1.141-3.971c.002-4.114 3.349-7.461 7.465-7.461a7.413 7.413 0 015.275 2.188 7.42 7.42 0 012.183 5.279c-.002 4.114-3.349 7.462-7.461 7.462zm4.093-5.589c-.225-.113-1.327-.655-1.533-.73-.205-.075-.354-.112-.504.112-.15.224-.58.729-.711.879-.131.15-.262.168-.486.056-.224-.112-.947-.349-1.804-1.113-.667-.595-1.117-1.329-1.248-1.554-.131-.225-.014-.346.099-.458.101-.1.224-.262.336-.393.112-.131.149-.224.224-.374.075-.15.038-.281-.019-.393-.056-.113-.505-1.217-.692-1.666-.181-.435-.366-.377-.504-.383a9.633 9.633 0 00-.429-.008.826.826 0 00-.599.28c-.206.225-.785.767-.785 1.871s.804 2.171.916 2.321c.112.15 1.582 2.415 3.832 3.387.536.231.954.369 1.279.473.537.171 1.026.146 1.413.089.431-.064 1.327-.542 1.514-1.066.187-.524.187-.973.131-1.067-.056-.094-.207-.151-.43-.263z" clip-rule="evenodd" />
	</symbol>

	<symbol id="arrow-next" viewbox="0 0 24 24">
		<path d="M2.99994 13L17.5859 13L12.2929 18.293L13.7069 19.707L21.4139 12L13.7069 4.29303L12.2929 5.70703L17.5859 11L2.99994 11L2.99994 13Z" fill="currentColor"></path>
	</symbol>

	<symbol id="upload" viewBox="0 0 24 24">
		<path d="M11 15h2V9h3l-4-5-4 5h3v6z" />
		<path d="M20 18H4v-7H2v7c0 1.103.897 2 2 2h16c1.103 0 2-.897 2-2v-7h-2v7z" />
	</symbol>

	<symbol id="calendar" viewbox="0 0 24 24">
		<path d="M7 11H9V13H7V11ZM7 15H9V17H7V15ZM11 11H13V13H11V11ZM11 15H13V17H11V15ZM15 11H17V13H15V11ZM15 15H17V17H15V15Z" fill="currentColor"></path>
		<path d="M5 22H19C20.103 22 21 21.103 21 20V6C21 4.897 20.103 4 19 4H17V2H15V4H9V2H7V4H5C3.897 4 3 4.897 3 6V20C3 21.103 3.897 22 5 22ZM19 8L19.001 20H5V8H19Z" fill="currentColor"></path>
	</symbol>

	<symbol id="exit" viewBox="0 0 24 24">
		<path d="M16 13v-2H7V8l-5 4 5 4v-3h9z" />
		<path d="M20 3h-9c-1.103 0-2 .897-2 2v4h2V5h9v14h-9v-4H9v4c0 1.103.897 2 2 2h9c1.103 0 2-.897 2-2V5c0-1.103-.897-2-2-2z" />
	</symbol>

	<symbol id="chat" viewbox="0 0 24 24">
		<path d="M4 18H6V22.081L11.101 18H16C17.103 18 18 17.103 18 16V8C18 6.897 17.103 6 16 6H4C2.897 6 2 6.897 2 8V16C2 17.103 2.897 18 4 18Z" fill="currentColor"></path>
		<path d="M20 2H8C6.897 2 6 2.897 6 4H18C19.103 4 20 4.897 20 6V14C21.103 14 22 13.103 22 12V4C22 2.897 21.103 2 20 2Z" fill="currentColor"></path>
	</symbol>

	<symbol id="chevron-right" viewbox="0 0 24 24">
		<path d="M10.707 17.707L16.414 12L10.707 6.29297L9.29297 7.70697L13.586 12L9.29297 16.293L10.707 17.707Z" fill="currentColor"></path>
	</symbol>

	<symbol id="chevron-left" viewbox="0 0 24 24">
		<path d="M13.293 17.707L7.58603 12L13.293 6.29297L14.707 7.70697L10.414 12L14.707 16.293L13.293 17.707Z" fill="currentColor"/>
	</symbol>

	<symbol id="euro" viewbox="0 0 24 24">
		<path d="M13.464 6C14.894 6 16.243 6.613 17.263 7.726L18.738 6.374C17.334 4.843 15.461 4 13.464 4C11.466 4 9.594 4.843 8.192 6.375C7.4936 7.1386 6.94929 8.02993 6.589 9H4V11H6.114C6.076 11.33 6.05 11.663 6.05 12C6.05 12.337 6.076 12.67 6.114 13H4V15H6.589C6.951 15.97 7.49 16.861 8.192 17.626C9.594 19.157 11.466 20 13.464 20C15.461 20 17.334 19.157 18.737 17.626L17.262 16.274C16.243 17.387 14.894 18 13.464 18C12.034 18 10.686 17.388 9.666 16.274C9.32358 15.8887 9.0328 15.4604 8.801 15H13V13H8.139C8.089 12.672 8.05 12.34 8.05 12C8.05 11.66 8.089 11.328 8.139 11H13V9H8.801C9.041 8.543 9.317 8.107 9.666 7.726C10.686 6.613 12.034 6 13.464 6Z" fill="currentColor"></path>
	</symbol>

	<symbol id="usd" viewBox="0 0 24 24">
        <path d="M15.999 8.5h2c0-2.837-2.755-4.131-5-4.429V2h-2v2.071c-2.245.298-5 1.592-5 4.429 0 2.706 2.666 4.113 5 4.43v4.97c-1.448-.251-3-1.024-3-2.4h-2c0 2.589 2.425 4.119 5 4.436V22h2v-2.07c2.245-.298 5-1.593 5-4.43 0-2.837-2.755-4.131-5-4.429V6.1c1.33.239 3 .941 3 2.4zm-8 0c0-1.459 1.67-2.161 3-2.4v4.799c-1.371-.253-3-1.002-3-2.399zm8 7c0 1.459-1.67 2.161-3 2.4v-4.8c1.33.239 3 .941 3 2.4z" fill="currentColor" />
    </symbol>

	<symbol id="rub" viewBox="0 0 24 24">
        <path d="M8 21h2v-3h6v-2h-6v-2h4.5c2.757 0 5-2.243 5-5s-2.243-5-5-5H9a1 1 0 00-1 1v7H5v2h3v2H5v2h3v3zm2-15h4.5c1.654 0 3 1.346 3 3s-1.346 3-3 3H10V6z" fill="currentColor" />
    </symbol>

	<symbol id="facebook" viewbox="0 0 24 24">
		<path d="M13.397 20.9972V12.8012H16.162L16.573 9.59217H13.397V7.54817C13.397 6.62217 13.655 5.98817 14.984 5.98817H16.668V3.12717C15.8486 3.03936 15.025 2.99696 14.201 3.00017C11.757 3.00017 10.079 4.49217 10.079 7.23117V9.58617H7.33197V12.7952H10.085V20.9972H13.397Z" fill="currentColor"></path>
	</symbol>

	<symbol id="instagram" viewbox="0 0 24 24">
		<path d="M11.999 7.37695C10.7726 7.37695 9.59651 7.86412 8.72934 8.73129C7.86217 9.59846 7.375 10.7746 7.375 12.001C7.375 13.2273 7.86217 14.4034 8.72934 15.2706C9.59651 16.1378 10.7726 16.625 11.999 16.625C13.2254 16.625 14.4015 16.1378 15.2687 15.2706C16.1358 14.4034 16.623 13.2273 16.623 12.001C16.623 10.7746 16.1358 9.59846 15.2687 8.73129C14.4015 7.86412 13.2254 7.37695 11.999 7.37695ZM11.999 15.004C11.2023 15.004 10.4382 14.6875 9.87485 14.1241C9.31149 13.5607 8.995 12.7967 8.995 12C8.995 11.2032 9.31149 10.4392 9.87485 9.8758C10.4382 9.31245 11.2023 8.99595 11.999 8.99595C12.7957 8.99595 13.5598 9.31245 14.1231 9.8758C14.6865 10.4392 15.003 11.2032 15.003 12C15.003 12.7967 14.6865 13.5607 14.1231 14.1241C13.5598 14.6875 12.7957 15.004 11.999 15.004Z" fill="currentColor"></path>
		<path d="M16.806 8.28491C17.4014 8.28491 17.884 7.80227 17.884 7.20691C17.884 6.61154 17.4014 6.12891 16.806 6.12891C16.2107 6.12891 15.728 6.61154 15.728 7.20691C15.728 7.80227 16.2107 8.28491 16.806 8.28491Z" fill="currentColor"></path>
		<path d="M20.533 6.11088C20.3015 5.51306 19.9477 4.97017 19.4943 4.51694C19.041 4.06372 18.4979 3.71015 17.9 3.47888C17.2003 3.21624 16.4612 3.07422 15.714 3.05888C14.751 3.01688 14.446 3.00488 12.004 3.00488C9.56201 3.00488 9.24901 3.00488 8.29401 3.05888C7.5474 3.07344 6.80877 3.21548 6.11001 3.47888C5.51195 3.70988 4.96878 4.06335 4.51535 4.51661C4.06192 4.96987 3.70824 5.51291 3.47701 6.11088C3.21432 6.8105 3.07263 7.54972 3.05801 8.29688C3.01501 9.25888 3.00201 9.56388 3.00201 12.0069C3.00201 14.4489 3.00201 14.7599 3.05801 15.7169C3.07301 16.4649 3.21401 17.2029 3.47701 17.9039C3.70889 18.5016 4.06291 19.0445 4.51645 19.4977C4.96999 19.9509 5.51308 20.3045 6.11101 20.5359C6.80845 20.8091 7.54739 20.9613 8.29601 20.9859C9.25901 21.0279 9.56401 21.0409 12.006 21.0409C14.448 21.0409 14.761 21.0409 15.716 20.9859C16.4631 20.9707 17.2022 20.829 17.902 20.5669C18.4998 20.3351 19.0426 19.9812 19.496 19.5279C19.9493 19.0745 20.3032 18.5316 20.535 17.9339C20.798 17.2339 20.939 16.4959 20.954 15.7479C20.997 14.7859 21.01 14.4809 21.01 12.0379C21.01 9.59488 21.01 9.28488 20.954 8.32788C20.9424 7.57016 20.7999 6.82013 20.533 6.11088ZM19.315 15.6429C19.3086 16.2192 19.2034 16.7901 19.004 17.3309C18.8538 17.7198 18.6239 18.0729 18.3291 18.3676C18.0342 18.6622 17.681 18.8919 17.292 19.0419C16.7572 19.2403 16.1924 19.3455 15.622 19.3529C14.672 19.3969 14.404 19.4079 11.968 19.4079C9.53001 19.4079 9.28101 19.4079 8.31301 19.3529C7.74294 19.3459 7.17834 19.2407 6.64401 19.0419C6.2537 18.8929 5.89902 18.6636 5.6029 18.3688C5.30679 18.0741 5.07585 17.7205 4.92501 17.3309C4.72846 16.7959 4.62333 16.2317 4.61401 15.6619C4.57101 14.7119 4.56101 14.4439 4.56101 12.0079C4.56101 9.57088 4.56101 9.32188 4.61401 8.35288C4.62048 7.77691 4.72567 7.2063 4.92501 6.66588C5.23001 5.87688 5.85501 5.25588 6.64401 4.95388C7.1786 4.75602 7.74304 4.65085 8.31301 4.64288C9.26401 4.59988 9.53101 4.58788 11.968 4.58788C14.405 4.58788 14.655 4.58788 15.622 4.64288C16.1924 4.64974 16.7574 4.75495 17.292 4.95388C17.6809 5.10416 18.0342 5.33408 18.329 5.62891C18.6238 5.92374 18.8537 6.27695 19.004 6.66588C19.2006 7.20083 19.3057 7.76504 19.315 8.33488C19.358 9.28588 19.369 9.55288 19.369 11.9899C19.369 14.4259 19.369 14.6879 19.326 15.6439H19.315V15.6429Z" fill="currentColor"></path>
	</symbol>

	<symbol id="location" viewbox="0 0 24 24">
		<path d="M18 4.47991C16.4087 2.88861 14.2504 1.99463 12 1.99463C9.74955 1.99463 7.59129 2.88861 5.99999 4.47991C4.40869 6.07121 3.51471 8.22947 3.51471 10.4799C3.51471 12.7303 4.40869 14.8886 5.99999 16.4799L11.27 21.7599C11.363 21.8536 11.4736 21.928 11.5954 21.9788C11.7173 22.0296 11.848 22.0557 11.98 22.0557C12.112 22.0557 12.2427 22.0296 12.3646 21.9788C12.4864 21.928 12.597 21.8536 12.69 21.7599L18 16.4299C19.5846 14.8452 20.4749 12.696 20.4749 10.4549C20.4749 8.21386 19.5846 6.06459 18 4.47991ZM16.57 14.9999L12 19.5899L7.42999 14.9999C6.52713 14.0962 5.91247 12.9452 5.66369 11.6922C5.4149 10.4392 5.54318 9.14066 6.03229 7.96059C6.52141 6.78052 7.34941 5.77196 8.41162 5.06239C9.47383 4.35281 10.7226 3.97409 12 3.97409C13.2774 3.97409 14.5261 4.35281 15.5884 5.06239C16.6506 5.77196 17.4786 6.78052 17.9677 7.96059C18.4568 9.14066 18.5851 10.4392 18.3363 11.6922C18.0875 12.9452 17.4728 14.0962 16.57 14.9999ZM8.99999 7.40991C8.19271 8.21968 7.73939 9.31648 7.73939 10.4599C7.73939 11.6033 8.19271 12.7001 8.99999 13.5099C9.59975 14.1107 10.3636 14.521 11.1956 14.6893C12.0277 14.8576 12.8909 14.7765 13.6771 14.4561C14.4632 14.1356 15.1372 13.5902 15.6145 12.8882C16.0918 12.1861 16.3511 11.3588 16.36 10.5099C16.3645 9.94311 16.2553 9.38117 16.0389 8.8573C15.8225 8.33343 15.5032 7.85827 15.1 7.45991C14.7037 7.05449 14.2311 6.73145 13.7094 6.50938C13.1878 6.2873 12.6273 6.17059 12.0604 6.16594C11.4935 6.16129 10.9312 6.26881 10.406 6.4823C9.88073 6.69579 9.40291 7.01104 8.99999 7.40991ZM13.69 12.0899C13.311 12.4747 12.8102 12.7158 12.2731 12.7722C11.736 12.8285 11.1961 12.6966 10.7455 12.3988C10.2949 12.1011 9.96179 11.6562 9.803 11.14C9.64421 10.6238 9.66964 10.0685 9.87495 9.56907C10.0803 9.06958 10.4527 8.65693 10.9286 8.40165C11.4045 8.14637 11.9542 8.06432 12.4839 8.16953C13.0136 8.27474 13.4903 8.56067 13.8325 8.97844C14.1747 9.39621 14.3612 9.91988 14.36 10.4599C14.3454 11.0772 14.0865 11.6634 13.64 12.0899H13.69Z" fill="currentColor"></path>
	</symbol>

	<symbol id="mail" viewbox="0 0 24 24">
		<path d="M14.7075 12C14.7075 13.4925 13.4925 14.7075 12 14.7075C10.5075 14.7075 9.2925 13.4925 9.2925 12C9.2925 10.5075 10.5075 9.2925 12 9.2925C13.4925 9.2925 14.7075 10.5075 14.7075 12ZM12 3C7.03725 3 3 7.03725 3 12C3 16.9628 7.03725 21 12 21C13.818 21 15.5708 20.4585 17.07 19.4347L17.0955 19.4167L15.8827 18.0075L15.8625 18.0203C14.711 18.7622 13.3698 19.1562 12 19.155C8.055 19.155 4.845 15.945 4.845 12C4.845 8.055 8.055 4.845 12 4.845C15.945 4.845 19.155 8.055 19.155 12C19.1539 12.5171 19.0974 13.0325 18.9862 13.5375C18.7605 14.4668 18.1095 14.751 17.6213 14.7135C17.1308 14.6737 16.5563 14.3235 16.5518 13.4677V12C16.5506 10.7931 16.0706 9.63596 15.2173 8.78248C14.364 7.929 13.2069 7.44889 12 7.4475C10.793 7.44869 9.63571 7.92871 8.78221 8.78221C7.92871 9.63571 7.44869 10.793 7.4475 12C7.44869 13.207 7.92871 14.3643 8.78221 15.2178C9.63571 16.0713 10.793 16.5513 12 16.5525C12.5999 16.554 13.194 16.4359 13.7478 16.2051C14.3015 15.9743 14.8037 15.6355 15.225 15.2085C15.4913 15.6267 15.8595 15.9703 16.2951 16.2071C16.7306 16.4439 17.2192 16.5661 17.715 16.5623C18.3705 16.5623 19.02 16.3432 19.5427 15.9465C20.082 15.5362 20.4848 14.9445 20.7075 14.2327C20.7428 14.1173 20.8088 13.8548 20.8088 13.8525L20.8102 13.8427C20.9415 13.2727 21 12.7028 21 12C21 7.03725 16.9628 3 12 3" fill="currentColor"></path>
	</symbol>

	<symbol id="phone" viewbox="0 0 24 24">
		<path d="M20 10.999H22C22 5.869 18.127 2 12.99 2V4C17.052 4 20 6.943 20 10.999Z" fill="currentColor"></path>
		<path d="M13 8.00024C15.103 8.00024 16 8.89724 16 11.0002H18C18 7.77524 16.225 6.00024 13 6.00024V8.00024ZM16.422 13.4432C16.2299 13.2686 15.9774 13.1754 15.7178 13.1835C15.4583 13.1915 15.212 13.3001 15.031 13.4862L12.638 15.9472C12.062 15.8372 10.904 15.4762 9.71204 14.2872C8.52004 13.0942 8.15904 11.9332 8.05204 11.3612L10.511 8.96724C10.6975 8.78637 10.8062 8.54006 10.8142 8.28045C10.8222 8.02083 10.7289 7.76828 10.554 7.57624L6.85904 3.51324C6.68408 3.3206 6.44092 3.20374 6.18119 3.1875C5.92146 3.17125 5.66564 3.2569 5.46804 3.42624L3.29804 5.28724C3.12515 5.46075 3.02196 5.69169 3.00804 5.93624C2.99304 6.18624 2.70704 12.1082 7.29904 16.7022C11.305 20.7072 16.323 21.0002 17.705 21.0002C17.907 21.0002 18.031 20.9942 18.064 20.9922C18.3086 20.9786 18.5394 20.8749 18.712 20.7012L20.572 18.5302C20.7415 18.3328 20.8273 18.077 20.8113 17.8173C20.7952 17.5576 20.6785 17.3143 20.486 17.1392L16.422 13.4432Z" fill="currentColor"></path>
	</symbol>

	<symbol id="telegram" viewbox="0 0 32 32">
		<path d="M27.2644 5.23138L4.21535 14.1195C2.64235 14.7513 2.65145 15.6288 3.92675 16.0201L9.84435 17.8661L23.536 9.22758C24.1834 8.83368 24.7749 9.04558 24.2887 9.47718L13.1958 19.4885H13.1932L13.1958 19.4898L12.7876 25.5894C13.3856 25.5894 13.6495 25.3151 13.9849 24.9914L16.8592 22.1964L22.8379 26.6125C23.9403 27.2196 24.732 26.9076 25.0063 25.592L28.931 7.09558C29.3327 5.48488 28.3161 4.75558 27.2644 5.23138Z" fill="currentColor"></path>
	</symbol>

	<symbol id="telegram-small" viewbox="0 0 24 24">
		<path d="M20.6651 3.71682L2.93509 10.5538C1.72509 11.0398 1.73209 11.7148 2.71309 12.0158L7.26509 13.4358L17.7971 6.79082C18.2951 6.48782 18.7501 6.65082 18.3761 6.98282L9.8431 14.6838H9.84109L9.8431 14.6848L9.5291 19.3768C9.9891 19.3768 10.1921 19.1658 10.4501 18.9168L12.6611 16.7668L17.2601 20.1638C18.1081 20.6308 18.7171 20.3908 18.9281 19.3788L21.9471 5.15082C22.2561 3.91182 21.4741 3.35082 20.6651 3.71682Z" fill="currentColor"></path>
	</symbol>

	<symbol id="whatapp" viewbox="0 0 32 32">
		<path clip-rule="evenodd" d="M24.3238 7.72274C23.2427 6.63449 21.9564 5.77159 20.5393 5.18404C19.1223 4.59648 17.6028 4.29594 16.0688 4.29984C9.63643 4.29984 4.40003 9.53494 4.39743 15.9699C4.39743 18.0265 4.93433 20.0337 5.95483 21.8043L4.29993 27.8506L10.4866 26.2269C12.1979 27.1585 14.1152 27.647 16.0636 27.6478H16.0688C22.4999 27.6478 27.7363 22.4127 27.7389 15.9777C27.7433 14.4444 27.4438 12.9253 26.8576 11.5084C26.2715 10.0915 25.4103 8.80482 24.3238 7.72274ZM16.0688 25.6783H16.0649C14.3275 25.6785 12.6221 25.2111 11.1275 24.325L10.7739 24.1144L7.10273 25.0777L8.08163 21.4988L7.85153 21.1322C6.88015 19.5858 6.36593 17.7962 6.36823 15.9699C6.37083 10.6217 10.7219 6.27064 16.0727 6.27064C17.3471 6.26781 18.6093 6.51775 19.7864 7.00599C20.9635 7.49423 22.032 8.21108 22.9302 9.11504C23.8332 10.0147 24.549 11.0844 25.0361 12.2623C25.5232 13.4403 25.772 14.7031 25.7681 15.9777C25.7655 21.3259 21.4144 25.6783 16.0688 25.6783ZM21.3897 18.4126C21.0972 18.2657 19.6646 17.5611 19.3968 17.4636C19.1303 17.3661 18.9366 17.318 18.7416 17.6092C18.5466 17.9004 17.9876 18.5569 17.8173 18.7519C17.647 18.9469 17.4767 18.9703 17.1855 18.8247C16.8943 18.6791 15.9544 18.371 14.8403 17.3778C13.9732 16.6043 13.3882 15.6501 13.2179 15.3576C13.0476 15.0651 13.1997 14.9078 13.3466 14.7622C13.4779 14.6322 13.6378 14.4216 13.7834 14.2513C13.929 14.081 13.9771 13.9601 14.0746 13.7651C14.1721 13.5701 14.124 13.3998 14.0499 13.2542C13.9771 13.1073 13.3934 11.6721 13.1503 11.0884C12.915 10.5229 12.6745 10.5983 12.4951 10.5905C12.3093 10.5829 12.1234 10.5795 11.9374 10.5801C11.7896 10.5839 11.6441 10.6182 11.5101 10.6808C11.3761 10.7435 11.2565 10.8331 11.1587 10.9441C10.8909 11.2366 10.1382 11.9412 10.1382 13.3764C10.1382 14.8116 11.1834 16.1987 11.329 16.3937C11.4746 16.5887 13.3856 19.5332 16.3106 20.7968C17.0074 21.0971 17.5508 21.2765 17.9733 21.4117C18.6714 21.634 19.3071 21.6015 19.8102 21.5274C20.3705 21.4442 21.5353 20.8228 21.7784 20.1416C22.0215 19.4604 22.0215 18.8767 21.9487 18.7545C21.8759 18.6323 21.6796 18.5582 21.3897 18.4126Z" fill="currentColor" fill-rule="evenodd"></path>
	</symbol>

	<symbol id="whatapp-small" viewbox="0 0 24 24">
		<path fill-rule="evenodd" clip-rule="evenodd" d="M18.403 5.63303C17.5714 4.79591 16.5819 4.13214 15.4919 3.68018C14.4019 3.22821 13.233 2.99703 12.053 3.00003C7.105 3.00003 3.077 7.02703 3.075 11.977C3.075 13.559 3.488 15.103 4.273 16.465L3 21.116L7.759 19.867C9.07539 20.5836 10.5502 20.9594 12.049 20.96H12.053C17 20.96 21.028 16.933 21.03 11.983C21.0334 10.8035 20.803 9.63502 20.3521 8.54509C19.9012 7.45516 19.2387 6.4654 18.403 5.63303ZM12.053 19.445H12.05C10.7135 19.4452 9.40163 19.0856 8.252 18.404L7.98 18.242L5.156 18.983L5.909 16.23L5.732 15.948C4.98479 14.7585 4.58923 13.3818 4.591 11.977C4.593 7.86303 7.94 4.51603 12.056 4.51603C13.0363 4.51385 14.0072 4.70611 14.9127 5.08168C15.8181 5.45725 16.6401 6.00867 17.331 6.70403C18.0256 7.39607 18.5762 8.21892 18.9509 9.12503C19.3256 10.0311 19.517 11.0025 19.514 11.983C19.512 16.097 16.165 19.445 12.053 19.445ZM16.146 13.856C15.921 13.743 14.819 13.201 14.613 13.126C14.408 13.051 14.259 13.014 14.109 13.238C13.959 13.462 13.529 13.967 13.398 14.117C13.267 14.267 13.136 14.285 12.912 14.173C12.688 14.061 11.965 13.824 11.108 13.06C10.441 12.465 9.991 11.731 9.86 11.506C9.729 11.281 9.846 11.16 9.959 11.048C10.06 10.948 10.183 10.786 10.295 10.655C10.407 10.524 10.444 10.431 10.519 10.281C10.594 10.131 10.557 10 10.5 9.88803C10.444 9.77503 9.995 8.67103 9.808 8.22203C9.627 7.78703 9.442 7.84503 9.304 7.83903C9.16108 7.83318 9.01804 7.83052 8.875 7.83103C8.76126 7.83393 8.64934 7.86029 8.54626 7.90848C8.44318 7.95666 8.35117 8.02562 8.276 8.11103C8.07 8.33603 7.491 8.87803 7.491 9.98203C7.491 11.086 8.295 12.153 8.407 12.303C8.519 12.453 9.989 14.718 12.239 15.69C12.775 15.921 13.193 16.059 13.518 16.163C14.055 16.334 14.544 16.309 14.931 16.252C15.362 16.188 16.258 15.71 16.445 15.186C16.632 14.662 16.632 14.213 16.576 14.119C16.52 14.025 16.369 13.968 16.146 13.856Z" fill="currentColor"></path>
	</symbol>

	<symbol id="yacht" viewbox="0 0 24 24">
		<path d="M13 3V4H11V3H13ZM12 10.11L17.38 11.88L19.77 12.66L18.65 16.63C18.11 16.33 17.71 15.92 17.51 15.69L16 13.96L14.49 15.68C14.15 16.08 13.21 17 12 17C10.79 17 9.84998 16.08 9.50998 15.68L7.99998 13.96L6.48998 15.68C6.28998 15.91 5.88998 16.31 5.34998 16.61L4.21998 12.65L6.61998 11.86L12 10.11ZM15 1H8.99998V4H5.99998C4.89998 4 3.99998 4.9 3.99998 6V10.62L2.70998 11.04C2.58174 11.0794 2.46265 11.144 2.35973 11.2301C2.25681 11.3161 2.17212 11.4219 2.11063 11.5411C2.04915 11.6604 2.01211 11.7907 2.0017 11.9244C1.99128 12.0582 2.0077 12.1927 2.04998 12.32L3.94998 19H3.99998C5.59998 19 7.01998 18.12 7.99998 17C8.97998 18.12 10.4 19 12 19C13.6 19 15.02 18.12 16 17C16.98 18.12 18.4 19 20 19H20.05L21.94 12.32C22.02 12.06 22 11.78 21.88 11.54C21.76 11.3 21.54 11.12 21.28 11.04L20 10.62V6C20 4.9 19.1 4 18 4H15V1ZM5.99998 9.97V6H18V9.97L12 8L5.99998 9.97ZM16 19.68C14.78 20.53 13.39 20.96 12 20.96C10.61 20.96 9.21998 20.53 7.99998 19.68C6.77998 20.53 5.38998 21 3.99998 21H1.99998V23H3.99998C5.37998 23 6.73998 22.65 7.99998 22.01C9.25998 22.65 10.63 22.98 12 22.98C13.37 22.98 14.74 22.66 16 22.01C17.26 22.66 18.62 23 20 23H22V21H20C18.61 21 17.22 20.53 16 19.68Z" fill="currentColor"></path>
	</symbol>

	<symbol id="close" viewBox="0 0 16 16">
        <path d="M4.646 4.646a.5.5 0 0 1 .708 0L8 7.293l2.646-2.647a.5.5 0 0 1 .708.708L8.707 8l2.647 2.646a.5.5 0 0 1-.708.708L8 8.707l-2.646 2.647a.5.5 0 0 1-.708-.708L7.293 8 4.646 5.354a.5.5 0 0 1 0-.708z" fill="currentColor"></path>
    </symbol>

	<symbol id="chevron-up" viewBox="0 0 24 24">
        <path d="M6.293 13.293l1.414 1.414L12 10.414l4.293 4.293 1.414-1.414L12 7.586l-5.707 5.707z" fill="currentColor" />
    </symbol>

	<symbol id="help" viewBox="0 0 24 24">
		<path d="M12 2C6.486 2 2 6.486 2 12s4.486 10 10 10 10-4.486 10-10S17.514 2 12 2zm1 16h-2v-2h2v2zm.976-4.885c-.196.158-.385.309-.535.459-.408.407-.44.777-.441.793v.133h-2v-.167c0-.118.029-1.177 1.026-2.174.195-.195.437-.393.691-.599.734-.595 1.216-1.029 1.216-1.627a1.934 1.934 0 00-3.867.001h-2A3.939 3.939 0 0112 6a3.939 3.939 0 013.934 3.934c0 1.597-1.179 2.55-1.958 3.181z" />
	</symbol>

	<symbol id="chevron-down" viewBox="0 0 20 20">
        <path d="M13.5775 7.74414L9.99997 11.3216L6.42247 7.74414L5.24414 8.92247L9.99997 13.6783L14.7558 8.92247L13.5775 7.74414Z" fill="currentColor" />
    </symbol>

	<symbol id="plus" viewBox="0 0 24 24">
        <path d="M19 11h-6V5h-2v6H5v2h6v6h2v-6h6v-2z" fill="currentColor" />
    </symbol>

	<symbol id="wifi" viewBox="0 0 16 16">
        <path d="M9.005 14.0154C8.725 14.2954 8.39 14.4354 8 14.4354C7.61 14.4354 7.275 14.2954 6.995 14.0154C6.715 13.7354 6.575 13.4004 6.575 13.0054C6.575 12.6104 6.715 12.2704 6.995 11.9904C7.275 11.7104 7.61 11.5704 8 11.5704C8.39 11.5704 8.73 11.7104 9.015 11.9904C9.3 12.2704 9.44 12.6104 9.44 13.0054C9.44 13.4004 9.295 13.7354 9.005 14.0154ZM1.28 5.72043C2.13 4.77043 3.125 4.03043 4.265 3.50043C5.445 2.96043 6.69 2.69043 8 2.69043C9.31 2.69043 10.555 2.96043 11.735 3.50043C12.875 4.03043 13.87 4.77043 14.72 5.72043L15.5 4.92543C14.55 3.87543 13.44 3.06043 12.17 2.48043C10.85 1.87043 9.46 1.56543 8 1.56543C6.54 1.56543 5.15 1.87043 3.83 2.48043C2.56 3.06043 1.45 3.87543 0.5 4.92543L1.28 5.72043ZM13.145 7.31043C12.515 6.57043 11.76 5.99543 10.88 5.58543C9.97 5.15543 9.01 4.94043 8 4.94043C6.99 4.94043 6.03 5.15543 5.12 5.58543C4.24 5.99543 3.485 6.57043 2.855 7.31043L3.635 8.10543C4.165 7.46543 4.805 6.96543 5.555 6.60543C6.325 6.23543 7.14 6.05043 8 6.05043C8.86 6.05043 9.675 6.23543 10.445 6.60543C11.185 6.96543 11.825 7.46543 12.365 8.10543L13.145 7.31043ZM10.79 9.69543C10.46 9.26543 10.055 8.92543 9.57 8.67543C9.085 8.42543 8.56 8.30043 8 8.30043C7.44 8.30043 6.92 8.42543 6.435 8.67543C5.95 8.92543 5.54 9.26543 5.21 9.69543L6.005 10.5054C6.225 10.1754 6.51 9.91543 6.86 9.72043C7.21 9.52543 7.59 9.42543 8 9.42543C8.41 9.42543 8.79 9.52543 9.14 9.72043C9.49 9.91543 9.775 10.1754 9.995 10.5054L10.79 9.69543Z" fill="currentColor" />
    </symbol>

	<symbol id="parking" viewBox="0 0 16 16">
        <path d="M7.16736 7.88785H8.30736C8.62736 7.88785 8.88236 7.80785 9.07236 7.64785C9.24236 7.47785 9.32736 7.24785 9.32736 6.95285C9.32736 6.65785 9.24236 6.41285 9.07236 6.22285C8.90236 6.03285 8.65736 5.92785 8.33736 5.90785H7.16736V7.88785ZM13.2274 8.00785C13.2274 8.94785 12.9874 9.82785 12.5074 10.6479C12.0474 11.4379 11.4224 12.0629 10.6324 12.5229C9.82236 13.0029 8.94736 13.2429 8.00236 13.2429C7.05736 13.2429 6.17236 13.0029 5.35236 12.5229C4.56236 12.0629 3.93736 11.4379 3.47736 10.6479C2.99736 9.82785 2.75736 8.94785 2.75736 8.00285C2.75736 7.05785 2.99736 6.17785 3.47736 5.36785C3.93736 4.57785 4.56236 3.95285 5.35236 3.49285C6.17236 3.01285 7.05736 2.77285 8.00236 2.77285C8.94736 2.77285 9.82236 3.01285 10.6324 3.49285C11.4224 3.95285 12.0474 4.57785 12.5074 5.36785C12.9874 6.17785 13.2274 7.05785 13.2274 8.00785ZM7.16736 8.93785H8.27736C9.01736 8.93785 9.59236 8.75785 10.0024 8.39785C10.4124 8.03785 10.6174 7.55285 10.6174 6.94285C10.6174 6.55285 10.5224 6.19285 10.3274 5.86285C10.1324 5.53285 9.86236 5.28785 9.52236 5.12785C9.16236 4.94785 8.75736 4.85785 8.30736 4.85785H5.90736V11.1429H7.16736V8.93785ZM15.3274 8.00785C15.3274 9.32785 14.9924 10.5579 14.3224 11.6979C13.6724 12.8079 12.7974 13.6829 11.6974 14.3229C10.5574 14.9929 9.32736 15.3279 8.00236 15.3279C6.67736 15.3279 5.44236 14.9929 4.30236 14.3229C3.20236 13.6729 2.32736 12.7979 1.67736 11.6979C1.00736 10.5579 0.672363 9.32785 0.672363 8.00285C0.672363 6.67785 1.00736 5.44285 1.67736 4.30285C2.31736 3.20285 3.19236 2.32785 4.30236 1.67785C5.44236 1.00785 6.67736 0.672852 8.00236 0.672852C9.32736 0.672852 10.5574 1.00785 11.6974 1.67785C12.7974 2.32785 13.6724 3.20285 14.3224 4.30285C14.9924 5.44285 15.3274 6.67785 15.3274 8.00785ZM14.2774 8.00785C14.2774 6.86785 13.9924 5.81285 13.4224 4.84285C12.8624 3.89285 12.1074 3.13785 11.1574 2.57785C10.1874 2.00785 9.13236 1.72285 7.99236 1.72285C6.85236 1.72285 5.79736 2.00785 4.82736 2.57785C3.87736 3.13785 3.12736 3.89285 2.57736 4.84285C2.00736 5.81285 1.72236 6.86785 1.72236 8.00785C1.72236 9.14785 2.00736 10.2029 2.57736 11.1729C3.12736 12.1229 3.87736 12.8729 4.82736 13.4229C5.79736 13.9929 6.85236 14.2779 7.99236 14.2779C9.13236 14.2779 10.1874 13.9929 11.1574 13.4229C12.1074 12.8729 12.8624 12.1229 13.4224 11.1729C13.9924 10.2029 14.2774 9.14785 14.2774 8.00785Z" fill="currentColor" />
    </symbol>

	<symbol id="gps" viewBox="0 0 16 16">
        <path d="M14.9677 1.03223L10.2127 14.9672L8.63771 7.36223L1.03271 5.78723L14.9677 1.03223ZM4.88771 5.54723L9.49271 6.50723L10.4527 11.1272L13.3327 2.66723L4.88771 5.54723Z" fill="currentColor" />
    </symbol>

	<symbol id="captain" viewBox="0 0 16 16">
        <path d="M8.00678 4.06834C7.78678 4.06834 7.60178 4.14834 7.44678 4.30334C7.29178 4.45834 7.21178 4.64334 7.21178 4.86334C7.21178 5.02334 7.26178 5.17334 7.36178 5.31334C7.46178 5.45334 7.58678 5.54834 7.73678 5.59834V7.44334C7.43678 7.38334 7.18678 7.23334 6.98678 6.99334C6.78678 6.75334 6.68678 6.47834 6.68678 6.16834H6.16178C6.16178 6.49834 6.24678 6.80334 6.41178 7.08334C6.57678 7.36334 6.80178 7.58834 7.08678 7.75334C7.37178 7.91834 7.67678 7.99834 8.00678 7.99834C8.33678 7.99834 8.64178 7.91834 8.92178 7.75334C9.20178 7.58834 9.42678 7.36334 9.59178 7.08334C9.75678 6.80334 9.83678 6.49834 9.83678 6.16834H9.31178C9.31178 6.47834 9.21178 6.75334 9.01178 6.99334C8.81178 7.23334 8.56178 7.38334 8.26178 7.44334V5.59834C8.41178 5.54834 8.53678 5.45334 8.63678 5.31334C8.73678 5.17334 8.78678 5.02334 8.78678 4.86334C8.78678 4.64334 8.71178 4.45834 8.55678 4.30334C8.40178 4.14834 8.21678 4.06834 8.00678 4.06834ZM7.73678 4.86334C7.73678 4.78334 7.76678 4.71834 7.82178 4.66834C7.87678 4.61834 7.93678 4.59334 8.00678 4.59334C8.07678 4.59334 8.13678 4.62334 8.18678 4.67834C8.23678 4.73334 8.26178 4.79334 8.26178 4.86334C8.26178 4.93334 8.23678 4.99334 8.18678 5.04334C8.13678 5.09334 8.07678 5.11834 8.00678 5.11834C7.93678 5.11834 7.87678 5.09334 7.82178 5.04334C7.76678 4.99334 7.73678 4.93334 7.73678 4.86334ZM8.00678 7.47334H7.99178H8.00678ZM7.78178 1.77334C7.91178 1.70334 8.05178 1.69834 8.20178 1.75834L15.0118 4.63834C15.1218 4.67834 15.2068 4.75834 15.2618 4.87334C15.3168 4.98834 15.3318 5.10334 15.3118 5.22334L14.2768 10.6683V10.8783H13.2268V11.1333C13.2268 11.6733 13.0568 12.1633 12.7168 12.6033C12.4168 12.9833 12.0018 13.3033 11.4718 13.5633C11.0018 13.8033 10.4568 13.9833 9.83678 14.1033C9.25678 14.2233 8.64678 14.2833 8.00678 14.2833C7.36678 14.2833 6.75678 14.2233 6.17678 14.1033C5.54678 13.9833 4.99678 13.8033 4.52678 13.5633C3.99678 13.3033 3.58178 12.9833 3.28178 12.6033C2.94178 12.1633 2.77178 11.6733 2.77178 11.1333V10.8783H1.72178V10.6683L0.686779 5.47834C0.666779 5.36834 0.686779 5.25834 0.741779 5.14834C0.796779 5.03834 0.871779 4.95834 0.971779 4.90834L7.78178 1.77334ZM2.62178 9.82834H13.3768L13.4218 9.57334H2.56178L2.62178 9.82834ZM2.36678 8.52334H13.6168L14.2168 5.43334L8.00678 2.80834L1.79678 5.68834L2.36678 8.52334Z" fill="currentColor" />
    </symbol>

	<symbol id="cleaning" viewBox="0 0 16 16">
        <path d="M4.85756 5.38285H11.1426V4.34785H4.85756V5.38285ZM11.1426 8.53285H4.85756V7.48285H11.1426V8.53285ZM4.85756 11.6679H11.1426V10.6179H4.85756V11.6679ZM3.28256 0.672852C3.00256 0.672852 2.76256 0.777852 2.55756 0.982852C2.35256 1.18785 2.24756 1.43285 2.24756 1.72285V14.2929C2.24756 14.5729 2.35256 14.8179 2.55756 15.0229C2.76256 15.2279 3.00256 15.3279 3.28256 15.3279H12.7026C12.9926 15.3279 13.2426 15.2279 13.4476 15.0279C13.6526 14.8279 13.7526 14.5829 13.7526 14.2929V1.72285C13.7526 1.43285 13.6526 1.18785 13.4476 0.982852C13.2426 0.777852 12.9926 0.672852 12.7026 0.672852H3.28256ZM3.28256 1.72285H12.7026V14.2929H3.28256V1.72285Z" fill="currentColor" />
    </symbol>

	<symbol id="minus" viewBox="0 0 24 24">
        <path d="M5 11h14v2H5v-2z" fill="currentColor"/>
    </symbol>

	<symbol id="checked" viewBox="0 0 16 17">
        <path d="M6.66681 10.891L4.47147 8.69564L3.52881 9.6383L6.66681 12.7763L13.1381 6.30497L12.1955 5.3623L6.66681 10.891Z" fill="currentColor"/>
    </symbol>

	<symbol id="search" viewBox="0 0 24 24">
        <path d="M10 18C11.775 17.9996 13.4988 17.4054 14.897 16.312L19.293 20.708L20.707 19.294L16.311 14.898C17.405 13.4997 17.9996 11.7754 18 10C18 5.589 14.411 2 10 2C5.589 2 2 5.589 2 10C2 14.411 5.589 18 10 18ZM10 4C13.309 4 16 6.691 16 10C16 13.309 13.309 16 10 16C6.691 16 4 13.309 4 10C4 6.691 6.691 4 10 4Z" fill="currentColor"/>
    </symbol>

	<symbol id="filter" viewBox="0 0 24 24">
        <path d="M13 5H22V7H13V5ZM2 7H9V9H11V3H9V5H2V7ZM9 17H22V19H9V17ZM19 11H22V13H19V11ZM17 15V9.012H15V11H2V13H15V15H17ZM7 21V15H5V17H2V19H5V21H7Z" fill="currentColor"/>
    </symbol>

	<symbol id="share" viewBox="0 0 20 20">
        <path d="M4.58366 12.4998C5.31291 12.4957 6.01431 12.2193 6.55033 11.7248L11.767 14.7082C11.7005 14.9384 11.6669 15.1769 11.667 15.4165C11.6616 16.0928 11.8895 16.7503 12.3121 17.2782C12.7348 17.8062 13.3265 18.1724 13.9876 18.3151C14.6486 18.4579 15.3387 18.3686 15.9416 18.0621C16.5445 17.7556 17.0233 17.2508 17.2976 16.6326C17.5718 16.0143 17.6246 15.3205 17.4472 14.6679C17.2697 14.0153 16.8728 13.4438 16.3233 13.0495C15.7737 12.6553 15.1052 12.4625 14.4301 12.5035C13.755 12.5446 13.1147 12.8169 12.617 13.2748L7.40033 10.2915C7.46329 10.0861 7.49695 9.87292 7.50033 9.65816L12.6253 6.72482C13.1204 7.17219 13.7542 7.43573 14.4205 7.47124C15.0868 7.50675 15.745 7.31208 16.2848 6.91987C16.8246 6.52765 17.2132 5.96176 17.3852 5.31709C17.5573 4.67242 17.5025 3.98818 17.23 3.37914C16.9574 2.77009 16.4838 2.27327 15.8884 1.97201C15.293 1.67075 14.6122 1.58336 13.9601 1.72451C13.3079 1.86566 12.7241 2.22675 12.3066 2.74723C11.8891 3.26771 11.6633 3.91593 11.667 4.58316C11.6698 4.82258 11.7034 5.06064 11.767 5.29149L7.02533 7.99982C6.75059 7.57479 6.36997 7.22856 5.9209 6.99516C5.47183 6.76177 4.96975 6.64924 4.46402 6.66865C3.95829 6.68805 3.46631 6.83872 3.03644 7.10584C2.60657 7.37296 2.25361 7.74733 2.01224 8.19217C1.77087 8.63701 1.64941 9.137 1.65979 9.643C1.67018 10.149 1.81204 10.6436 2.07145 11.0781C2.33086 11.5127 2.69889 11.8723 3.13935 12.1216C3.57982 12.3708 4.07756 12.5012 4.58366 12.4998ZM14.5837 14.1665C14.8309 14.1665 15.0726 14.2398 15.2781 14.3772C15.4837 14.5145 15.6439 14.7097 15.7385 14.9381C15.8331 15.1665 15.8579 15.4179 15.8096 15.6604C15.7614 15.9028 15.6424 16.1256 15.4675 16.3004C15.2927 16.4752 15.07 16.5942 14.8275 16.6425C14.585 16.6907 14.3337 16.6659 14.1053 16.5713C13.8769 16.4767 13.6817 16.3165 13.5443 16.111C13.407 15.9054 13.3337 15.6637 13.3337 15.4165C13.3337 15.085 13.4654 14.767 13.6998 14.5326C13.9342 14.2982 14.2521 14.1665 14.5837 14.1665ZM14.5837 3.33316C14.8309 3.33316 15.0726 3.40647 15.2781 3.54382C15.4837 3.68117 15.6439 3.87639 15.7385 4.1048C15.8331 4.33321 15.8579 4.58454 15.8096 4.82702C15.7614 5.0695 15.6424 5.29222 15.4675 5.46704C15.2927 5.64186 15.07 5.76091 14.8275 5.80914C14.585 5.85737 14.3337 5.83262 14.1053 5.73801C13.8769 5.6434 13.6817 5.48318 13.5443 5.27762C13.407 5.07206 13.3337 4.83038 13.3337 4.58316C13.3337 4.25164 13.4654 3.93369 13.6998 3.69927C13.9342 3.46485 14.2521 3.33316 14.5837 3.33316ZM4.58366 8.33316C4.83089 8.33316 5.07256 8.40647 5.27813 8.54382C5.48369 8.68117 5.6439 8.87639 5.73851 9.1048C5.83312 9.33321 5.85788 9.58454 5.80964 9.82702C5.76141 10.0695 5.64236 10.2922 5.46755 10.467C5.29273 10.6419 5.07 10.7609 4.82753 10.8091C4.58505 10.8574 4.33372 10.8326 4.10531 10.738C3.8769 10.6434 3.68168 10.4832 3.54433 10.2776C3.40697 10.0721 3.33366 9.83038 3.33366 9.58316C3.33366 9.25164 3.46536 8.93369 3.69978 8.69927C3.9342 8.46485 4.25214 8.33316 4.58366 8.33316Z" fill="currentColor"/>
    </symbol>

	<symbol id="arrow-left" viewBox="0 0 24 24">
		<path d="M20.9999 11H6.41394L11.7069 5.707L10.2929 4.293L2.58594 12L10.2929 19.707L11.7069 18.293L6.41394 13H20.9999V11Z" fill="currentColor"/>
    </symbol>

	<symbol id="arrow-right" viewBox="0 0 24 24">
		<path d="M3.00006 13L17.5861 13L12.2931 18.293L13.7071 19.707L21.4141 12L13.7071 4.293L12.2931 5.707L17.5861 11L3.00006 11L3.00006 13Z" fill="currentColor"/>
    </symbol>

	<symbol id="group" viewBox="0 0 24 24">
		<path d="M16.604 11.048a5.67 5.67 0 00.751-3.44c-.179-1.784-1.175-3.361-2.803-4.44l-1.105 1.666c1.12.742 1.8 1.799 1.918 2.974a3.694 3.694 0 01-1.072 2.986l-1.192 1.192 1.618.475C18.951 13.701 19 17.957 19 18h2c0-1.789-.956-5.285-4.396-6.952z" />
		<path d="M9.5 12c2.206 0 4-1.794 4-4s-1.794-4-4-4-4 1.794-4 4 1.794 4 4 4zm0-6c1.103 0 2 .897 2 2s-.897 2-2 2-2-.897-2-2 .897-2 2-2zm1.5 7H8c-3.309 0-6 2.691-6 6v1h2v-1c0-2.206 1.794-4 4-4h3c2.206 0 4 1.794 4 4v1h2v-1c0-3.309-2.691-6-6-6z" />
	</symbol>

	<symbol id="add-img" viewBox="0 0 24 24">
		<path d="M4 5h13v7h2V5c0-1.103-.897-2-2-2H4c-1.103 0-2 .897-2 2v12c0 1.103.897 2 2 2h8v-2H4V5z" />
		<path d="M8 11l-3 4h11l-4-6-3 4-1-2z" />
		<path d="M19 14h-2v3h-3v2h3v3h2v-3h3v-2h-3v-3z" />
	</symbol>

	<symbol id="document" viewBox="0 0 24 24">
		<path d="M19.903 8.586a.997.997 0 00-.196-.293l-6-6a.998.998 0 00-.293-.196c-.03-.014-.062-.022-.094-.033a.991.991 0 00-.259-.051C13.04 2.011 13.021 2 13 2H6c-1.103 0-2 .897-2 2v16c0 1.103.897 2 2 2h12c1.103 0 2-.897 2-2V9c0-.021-.011-.04-.013-.062a.954.954 0 00-.051-.259c-.01-.032-.019-.063-.033-.093zM16.586 8H14V5.414L16.586 8zM6 20V4h6v5a1 1 0 001 1h5l.002 10H6z" />
		<path d="M8 12h8v2H8v-2zm0 4h8v2H8v-2zm0-8h2v2H8V8z" />
	</symbol>

	<symbol id="usd" viewBox="0 0 24 24">
		<path d="M15.999 8.5h2c0-2.837-2.755-4.131-5-4.429V2h-2v2.071c-2.245.298-5 1.592-5 4.429 0 2.706 2.666 4.113 5 4.43v4.97c-1.448-.251-3-1.024-3-2.4h-2c0 2.589 2.425 4.119 5 4.436V22h2v-2.07c2.245-.298 5-1.593 5-4.43 0-2.837-2.755-4.131-5-4.429V6.1c1.33.239 3 .941 3 2.4zm-8 0c0-1.459 1.67-2.161 3-2.4v4.799c-1.371-.253-3-1.002-3-2.399zm8 7c0 1.459-1.67 2.161-3 2.4v-4.8c1.33.239 3 .941 3 2.4z" />
	</symbol>

	<symbol id="euro" viewBox="0 0 24 24">
		<path d="M13.464 6c1.43 0 2.779.613 3.799 1.726l1.475-1.352C17.334 4.843 15.461 4 13.464 4c-1.998 0-3.87.843-5.272 2.375A8.034 8.034 0 006.589 9H4v2h2.114a8.73 8.73 0 00-.064 1c0 .337.026.67.064 1H4v2h2.589c.362.97.901 1.861 1.603 2.626C9.594 19.157 11.466 20 13.464 20c1.997 0 3.87-.843 5.273-2.374l-1.475-1.352C16.243 17.387 14.894 18 13.464 18c-1.43 0-2.778-.612-3.798-1.726A5.937 5.937 0 018.801 15H13v-2H8.139a6.614 6.614 0 01-.089-1c0-.34.039-.672.089-1H13V9H8.801c.24-.457.516-.893.865-1.274C10.686 6.613 12.034 6 13.464 6z" />
	</symbol>

	<symbol id="outline-star" viewBox="0 0 24 24">
		<path d="M6.516 14.323l-1.49 6.452a.998.998 0 001.529 1.057L12 18.202l5.445 3.63a1.001 1.001 0 001.517-1.106l-1.829-6.4 4.536-4.082a1 1 0 00-.59-1.74l-5.701-.454-2.467-5.461a.997.997 0 00-1.822 0L8.622 8.05l-5.701.453a1 1 0 00-.619 1.713l4.214 4.107zm2.853-4.326a.998.998 0 00.832-.586L12 5.43l1.799 3.981a.998.998 0 00.832.586l3.972.315-3.271 2.944c-.284.256-.397.65-.293 1.018l1.253 4.385-3.736-2.491a.995.995 0 00-1.109 0l-3.904 2.603 1.05-4.546a1 1 0 00-.276-.94l-3.038-2.962 4.09-.326z" />
	</symbol>

	<symbol id="calendar" viewBox="0 0 24 24">
		<path d="M7 11h2v2H7v-2zm0 4h2v2H7v-2zm4-4h2v2h-2v-2zm0 4h2v2h-2v-2zm4-4h2v2h-2v-2zm0 4h2v2h-2v-2z" />
		<path d="M5 22h14c1.103 0 2-.897 2-2V6c0-1.103-.897-2-2-2h-2V2h-2v2H9V2H7v2H5c-1.103 0-2 .897-2 2v14c0 1.103.897 2 2 2zM19 8l.001 12H5V8h14z" />
	</symbol>

	<symbol id="minus" viewBox="0 0 24 24">
		<path d="M5 11h14v2H5v-2z" />
	</symbol>

	<symbol id="back" viewBox="0 0 24 24">
		<path d="M21 11H6.414l5.293-5.293-1.414-1.414L2.586 12l7.707 7.707 1.414-1.414L6.414 13H21v-2z" />
	</symbol>

	<symbol id="error" viewBox="0 0 24 24">
		<path d="M11.001 10h2v5h-2v-5zM11 16h2v2h-2v-2z" />
		<path d="M13.768 4.2A1.998 1.998 0 0012 3.138c-.742 0-1.42.407-1.768 1.063L2.894 18.064a1.986 1.986 0 00.054 1.968A1.983 1.983 0 004.66 21h14.678c.708 0 1.349-.362 1.714-.968a1.99 1.99 0 00.054-1.968L13.767 4.2zM4.66 19L12 5.137 19.344 19H4.66z" />
	</symbol>

	<symbol id="password" viewBox="0 0 24 24">
		<path d="M12 2C9.243 2 7 4.243 7 7v3H6c-1.103 0-2 .897-2 2v8c0 1.103.897 2 2 2h12c1.103 0 2-.897 2-2v-8c0-1.103-.897-2-2-2h-1V7c0-2.757-2.243-5-5-5zm6 10l.002 8H6v-8h12zm-9-2V7c0-1.654 1.346-3 3-3s3 1.346 3 3v3H9z" />
	</symbol>

	<symbol id="plus" viewBox="0 0 24 24">
		<path d="M19 11h-6V5h-2v6H5v2h6v6h2v-6h6v-2z" />
	</symbol>

	<symbol id="search" viewBox="0 0 24 24">
		<path d="M10 18a7.952 7.952 0 004.897-1.688l4.396 4.396 1.414-1.414-4.396-4.396A7.952 7.952 0 0018 10c0-4.411-3.589-8-8-8s-8 3.589-8 8 3.589 8 8 8zm0-14c3.309 0 6 2.691 6 6s-2.691 6-6 6-6-2.691-6-6 2.691-6 6-6z" />
	</symbol>

	<symbol id="fill-star" viewBox="0 0 24 24">
		<path d="M21.947 9.179a1 1 0 00-.868-.676l-5.701-.453-2.467-5.461a.997.997 0 00-1.822-.001L8.622 8.05l-5.701.453a1 1 0 00-.619 1.713l4.213 4.107-1.49 6.452a1 1 0 001.53 1.057L12 18.202l5.445 3.63a1.001 1.001 0 001.517-1.106l-1.829-6.4 4.536-4.082c.297-.268.406-.686.278-1.065z" fill="currentColor" />
	</symbol>

	<symbol id="help" viewBox="0 0 24 24">
		<path d="M12 2C6.486 2 2 6.486 2 12s4.486 10 10 10 10-4.486 10-10S17.514 2 12 2zm1 16h-2v-2h2v2zm.976-4.885c-.196.158-.385.309-.535.459-.408.407-.44.777-.441.793v.133h-2v-.167c0-.118.029-1.177 1.026-2.174.195-.195.437-.393.691-.599.734-.595 1.216-1.029 1.216-1.627a1.934 1.934 0 00-3.867.001h-2A3.939 3.939 0 0112 6a3.939 3.939 0 013.934 3.934c0 1.597-1.179 2.55-1.958 3.181z" />
	</symbol>

	<symbol id="mail" viewBox="0 0 24 24">
		<path d="M14.707 12A2.711 2.711 0 0112 14.707 2.711 2.711 0 019.293 12 2.711 2.711 0 0112 9.293 2.711 2.711 0 0114.707 12zM12 3c-4.963 0-9 4.037-9 9s4.037 9 9 9c1.818 0 3.57-.541 5.07-1.565l.026-.018-1.213-1.41-.02.013A7.12 7.12 0 0112 19.155c-3.945 0-7.155-3.21-7.155-7.155 0-3.945 3.21-7.155 7.155-7.155 3.945 0 7.155 3.21 7.155 7.155a7.22 7.22 0 01-.169 1.537c-.226.93-.877 1.214-1.365 1.176-.49-.04-1.065-.39-1.07-1.245V12A4.557 4.557 0 0012 7.447 4.557 4.557 0 007.447 12a4.557 4.557 0 006.3 4.205 4.516 4.516 0 001.478-.996 2.924 2.924 0 002.49 1.353c.655 0 1.305-.219 1.828-.616.539-.41.942-1.002 1.165-1.713.035-.116.1-.378.1-.38l.002-.01c.132-.57.19-1.14.19-1.843 0-4.963-4.037-9-9-9" />
	</symbol>

	<symbol id="profile" viewBox="0 0 24 24">
		<path d="M12 2C6.579 2 2 6.579 2 12c0 3.189 1.592 6.078 4 7.924V20h.102C7.77 21.245 9.813 22 12 22s4.23-.755 5.898-2H18v-.076c2.408-1.846 4-4.734 4-7.924 0-5.421-4.579-10-10-10zM8.074 18.927A3.002 3.002 0 0111 16.573h2a3.003 3.003 0 012.926 2.354A7.82 7.82 0 0112 20a7.82 7.82 0 01-3.926-1.073zm9.536-1.286A5.007 5.007 0 0013 14.573h-2a5.007 5.007 0 00-4.61 3.068C4.923 16.182 4 14.176 4 12c0-4.337 3.663-8 8-8s8 3.663 8 8c0 2.176-.923 4.182-2.39 5.641z" fill="currentColor" />
		<path d="M12 2C6.579 2 2 6.579 2 12c0 3.189 1.592 6.078 4 7.924V20h.102C7.77 21.245 9.813 22 12 22s4.23-.755 5.898-2H18v-.076c2.408-1.846 4-4.734 4-7.924 0-5.421-4.579-10-10-10zM8.074 18.927A3.002 3.002 0 0111 16.573h2a3.003 3.003 0 012.926 2.354A7.82 7.82 0 0112 20a7.82 7.82 0 01-3.926-1.073zm9.536-1.286A5.007 5.007 0 0013 14.573h-2a5.007 5.007 0 00-4.61 3.068C4.923 16.182 4 14.176 4 12c0-4.337 3.663-8 8-8s8 3.663 8 8c0 2.176-.923 4.182-2.39 5.641z" fill="currentColor" />
		<path d="M12 6c-2.28 0-4 1.72-4 4 0 2.28 1.72 4 4 4 2.28 0 4-1.72 4-4 0-2.28-1.72-4-4-4zm0 6c-1.178 0-2-.822-2-2s.822-2 2-2 2 .822 2 2-.822 2-2 2z" fill="currentColor" />
		<path d="M12 6c-2.28 0-4 1.72-4 4 0 2.28 1.72 4 4 4 2.28 0 4-1.72 4-4 0-2.28-1.72-4-4-4zm0 6c-1.178 0-2-.822-2-2s.822-2 2-2 2 .822 2 2-.822 2-2 2z" fill="currentColor" />
	</symbol>

	<symbol id="rub" viewBox="0 0 24 24">
		<path d="M8 21h2v-3h6v-2h-6v-2h4.5c2.757 0 5-2.243 5-5s-2.243-5-5-5H9a1 1 0 00-1 1v7H5v2h3v2H5v2h3v3zm2-15h4.5c1.654 0 3 1.346 3 3s-1.346 3-3 3H10V6z" />
	</symbol>

	<symbol id="copy" viewBox="0 0 24 24">
		<path d="M20 2H10c-1.103 0-2 .897-2 2v4H4c-1.103 0-2 .897-2 2v10c0 1.103.897 2 2 2h10c1.103 0 2-.897 2-2v-4h4c1.103 0 2-.897 2-2V4c0-1.103-.897-2-2-2zM4 20V10h10l.002 10H4zm16-6h-4v-4c0-1.103-.897-2-2-2h-4V4h10v10z" />
	</symbol>

	<symbol id="twitter" viewBox="0 0 24 24">
		<path d="M19.633 7.997c.013.175.013.349.013.523 0 5.325-4.053 11.461-11.46 11.461-2.282 0-4.402-.661-6.186-1.809.324.037.636.05.973.05a8.07 8.07 0 005.001-1.721 4.035 4.035 0 01-3.767-2.793c.249.037.499.062.761.062.361 0 .724-.05 1.061-.137a4.027 4.027 0 01-3.23-3.953v-.05c.537.299 1.16.486 1.82.511a4.022 4.022 0 01-1.796-3.354c0-.748.199-1.434.548-2.032a11.457 11.457 0 008.306 4.215c-.062-.3-.1-.611-.1-.923a4.024 4.024 0 014.028-4.028c1.16 0 2.207.486 2.943 1.272a7.957 7.957 0 002.556-.973c-.3.93-.93 1.72-1.771 2.22a8.073 8.073 0 002.319-.624 8.646 8.646 0 01-2.019 2.083z" />
	</symbol>

	<symbol id="telegram" viewBox="0 0 24 24">
		<path d="M20.665 3.717l-17.73 6.837c-1.21.486-1.203 1.161-.222 1.462l4.552 1.42 10.532-6.645c.498-.303.953-.14.58.192l-8.534 7.701h-.002l.002.001-.314 4.692c.46 0 .663-.211.921-.46l2.211-2.15 4.6 3.397c.847.467 1.456.227 1.667-.785l3.02-14.228c.308-1.239-.474-1.8-1.283-1.434z" />
	</symbol>

	<symbol id="tel" viewBox="0 0 24 24">
		<path d="M16.566 21.999h.028c.528 0 1.027-.208 1.405-.586l2.712-2.712a1 1 0 000-1.414l-4-4a1 1 0 00-1.414 0l-1.594 1.594c-.739-.22-2.118-.72-2.992-1.594-.874-.874-1.374-2.253-1.594-2.992l1.594-1.594a1 1 0 000-1.414l-4-4a1.03 1.03 0 00-1.414 0L2.586 5.999c-.38.38-.594.902-.586 1.435.023 1.424.4 6.37 4.298 10.268 3.898 3.898 8.844 4.274 10.268 4.297zM6.005 5.408l2.586 2.586-1.293 1.293a.996.996 0 00-.271.912c.024.115.611 2.842 2.271 4.502 1.66 1.66 4.387 2.247 4.502 2.271a.994.994 0 00.912-.271l1.293-1.293 2.586 2.586-2.006 2.005c-1.248-.021-5.518-.356-8.873-3.712C4.346 12.921 4.02 8.636 4 7.413l2.005-2.005zm13.994 5.591h2c0-5.13-3.873-8.999-9.01-8.999v2c4.062 0 7.01 2.943 7.01 6.999z" />
		<path d="M12.999 8c2.103 0 3 .897 3 3h2c0-3.225-1.775-5-5-5v2z" />
	</symbol>

	<symbol id="zoom" viewBox="0 0 24 24">
		<path d="M11 6H9v3H6v2h3v3h2v-3h3V9h-3V6z" />
		<path d="M10 2c-4.411 0-8 3.589-8 8s3.589 8 8 8a7.952 7.952 0 004.897-1.688l4.396 4.396 1.414-1.414-4.396-4.396A7.952 7.952 0 0018 10c0-4.411-3.589-8-8-8zm0 14c-3.309 0-6-2.691-6-6s2.691-6 6-6 6 2.691 6 6-2.691 6-6 6z" />
	</symbol>

	<symbol id="check" viewBox="0 0 24 24">
		<path d="M10 15.586l-3.293-3.293-1.414 1.414L10 18.414l9.707-9.707-1.414-1.414L10 15.586z" />
	</symbol>

	<symbol id="facebook" viewBox="0 0 24 24">
		<path d="M13.397 20.997v-8.196h2.765l.411-3.209h-3.176V7.548c0-.926.258-1.56 1.587-1.56h1.684V3.127c-.82-.088-1.643-.13-2.467-.127-2.444 0-4.122 1.492-4.122 4.231v2.355H7.332v3.209h2.753v8.202h3.312z" />
	</symbol>

	<symbol id="chevrone" viewBox="0 0 24 24">
		<path d="M6.293 13.293l1.414 1.414L12 10.414l4.293 4.293 1.414-1.414L12 7.586l-5.707 5.707z" />
	</symbol>
	<symbol id="star" viewBox="0 0 22 21">
		<path d="M21.5606 7.8554L4.79331 20.3049L7.23998 12.6107L0.835327 7.8554H8.7518L11.198 0.160645L13.6441 7.8554H21.5606V7.8554ZM11.1986 15.5502L15.7778 14.5657L17.6022 20.3049L11.1986 15.5502Z" fill="white"/>
	</symbol>
	<symbol id="star-full" viewBox="0 0 24 24">
		<path d="M21.947 9.17901C21.8842 8.99388 21.7685 8.83121 21.6142 8.71107C21.46 8.59094 21.2739 8.51861 21.079 8.50301L15.378 8.05001L12.911 2.58901C12.8325 2.41313 12.7047 2.26374 12.5431 2.15887C12.3815 2.05401 12.193 1.99815 12.0004 1.99805C11.8077 1.99794 11.6192 2.05359 11.4575 2.15828C11.2957 2.26296 11.1678 2.41221 11.089 2.58801L8.62203 8.05001L2.92103 8.50301C2.72948 8.51819 2.54636 8.58822 2.39358 8.70475C2.2408 8.82127 2.12482 8.97934 2.05952 9.16004C1.99422 9.34075 1.98236 9.53645 2.02537 9.72372C2.06838 9.91099 2.16443 10.0819 2.30203 10.216L6.51503 14.323L5.02503 20.775C4.97978 20.9703 4.99428 21.1747 5.06665 21.3617C5.13901 21.5486 5.26589 21.7095 5.43083 21.8235C5.59577 21.9374 5.79115 21.9991 5.99161 22.0007C6.19208 22.0022 6.38837 21.9434 6.55503 21.832L12 18.202L17.445 21.832C17.6154 21.9451 17.8162 22.0033 18.0207 21.9988C18.2251 21.9944 18.4232 21.9274 18.5884 21.8069C18.7536 21.6865 18.878 21.5183 18.9448 21.3251C19.0116 21.1318 19.0176 20.9228 18.962 20.726L17.133 14.326L21.669 10.244C21.966 9.97601 22.075 9.55801 21.947 9.17901Z" fill="#F5DC44"/>
	</symbol>
	<symbol id="delete" viewBox="0 0 20 20">
		<path d="M4.16667 16.667C4.16667 17.109 4.34226 17.5329 4.65482 17.8455C4.96738 18.1581 5.39131 18.3337 5.83333 18.3337H14.1667C14.6087 18.3337 15.0326 18.1581 15.3452 17.8455C15.6577 17.5329 15.8333 17.109 15.8333 16.667V6.66699H17.5V5.00033H14.1667V3.33366C14.1667 2.89163 13.9911 2.46771 13.6785 2.15515C13.3659 1.84259 12.942 1.66699 12.5 1.66699H7.5C7.05797 1.66699 6.63405 1.84259 6.32149 2.15515C6.00893 2.46771 5.83333 2.89163 5.83333 3.33366V5.00033H2.5V6.66699H4.16667V16.667ZM7.5 3.33366H12.5V5.00033H7.5V3.33366ZM6.66667 6.66699H14.1667V16.667H5.83333V6.66699H6.66667Z" fill="currentColor"/>
		<path d="M7.5 8.33301H9.16667V14.9997H7.5V8.33301ZM10.8333 8.33301H12.5V14.9997H10.8333V8.33301Z" fill="currentColor"/>
	</symbol>
</svg>
